<mxfile host="65bd71144e" scale="2.5" border="0">
    <diagram id="hvXVmtLN84fM57t1r2kW" name="Page-1">
        <mxGraphModel dx="1111" dy="496" grid="1" gridSize="10" guides="1" tooltips="1" connect="1" arrows="1" fold="1" page="1" pageScale="1" pageWidth="1169" pageHeight="827" math="0" shadow="0">
            <root>
                <mxCell id="0"/>
                <mxCell id="WDFroLOSNas-2Gb8HKun-86" value="Pattern" parent="0"/>
                <mxCell id="WDFroLOSNas-2Gb8HKun-160" value="" style="group" parent="WDFroLOSNas-2Gb8HKun-86" vertex="1" connectable="0">
                    <mxGeometry x="300" width="540" height="480" as="geometry"/>
                </mxCell>
                <mxCell id="WDFroLOSNas-2Gb8HKun-87" value="" style="shape=image;verticalLabelPosition=bottom;labelBackgroundColor=none;verticalAlign=top;aspect=fixed;imageAspect=0;image=data:image/svg+xml,%3Csvg width='60' height='60' viewBox='0 0 60 60' xmlns='http://www.w3.org/2000/svg'%3E%3Cg fill='none' fill-rule='evenodd'%3E%3Cg fill='%23d3d4e8' fill-opacity='0.36'%3E%3Cpath d='M36 34v-4h-2v4h-4v2h4v4h2v-4h4v-2h-4zm0-30V0h-2v4h-4v2h4v4h2V6h4V4h-4zM6 34v-4H4v4H0v2h4v4h2v-4h4v-2H6zM6 4V0H4v4H0v2h4v4h2V6h4V4H6z'/%3E%3C/g%3E%3C/g%3E%3C/svg%3E;imageBackground=none;fontColor=none;noLabel=1;sketch=0;imageBorder=none;" parent="WDFroLOSNas-2Gb8HKun-160" vertex="1">
                    <mxGeometry x="120" width="60" height="60" as="geometry"/>
                </mxCell>
                <mxCell id="WDFroLOSNas-2Gb8HKun-88" value="" style="shape=image;verticalLabelPosition=bottom;labelBackgroundColor=none;verticalAlign=top;aspect=fixed;imageAspect=0;image=data:image/svg+xml,%3Csvg width='60' height='60' viewBox='0 0 60 60' xmlns='http://www.w3.org/2000/svg'%3E%3Cg fill='none' fill-rule='evenodd'%3E%3Cg fill='%23d3d4e8' fill-opacity='0.36'%3E%3Cpath d='M36 34v-4h-2v4h-4v2h4v4h2v-4h4v-2h-4zm0-30V0h-2v4h-4v2h4v4h2V6h4V4h-4zM6 34v-4H4v4H0v2h4v4h2v-4h4v-2H6zM6 4V0H4v4H0v2h4v4h2V6h4V4H6z'/%3E%3C/g%3E%3C/g%3E%3C/svg%3E;imageBackground=none;fontColor=none;noLabel=1;sketch=0;imageBorder=none;" parent="WDFroLOSNas-2Gb8HKun-160" vertex="1">
                    <mxGeometry x="60" width="60" height="60" as="geometry"/>
                </mxCell>
                <mxCell id="WDFroLOSNas-2Gb8HKun-89" value="" style="shape=image;verticalLabelPosition=bottom;labelBackgroundColor=none;verticalAlign=top;aspect=fixed;imageAspect=0;image=data:image/svg+xml,%3Csvg width='60' height='60' viewBox='0 0 60 60' xmlns='http://www.w3.org/2000/svg'%3E%3Cg fill='none' fill-rule='evenodd'%3E%3Cg fill='%23d3d4e8' fill-opacity='0.36'%3E%3Cpath d='M36 34v-4h-2v4h-4v2h4v4h2v-4h4v-2h-4zm0-30V0h-2v4h-4v2h4v4h2V6h4V4h-4zM6 34v-4H4v4H0v2h4v4h2v-4h4v-2H6zM6 4V0H4v4H0v2h4v4h2V6h4V4H6z'/%3E%3C/g%3E%3C/g%3E%3C/svg%3E;imageBackground=none;fontColor=none;noLabel=1;sketch=0;imageBorder=none;" parent="WDFroLOSNas-2Gb8HKun-160" vertex="1">
                    <mxGeometry width="60" height="60" as="geometry"/>
                </mxCell>
                <mxCell id="WDFroLOSNas-2Gb8HKun-90" value="" style="shape=image;verticalLabelPosition=bottom;labelBackgroundColor=none;verticalAlign=top;aspect=fixed;imageAspect=0;image=data:image/svg+xml,%3Csvg width='60' height='60' viewBox='0 0 60 60' xmlns='http://www.w3.org/2000/svg'%3E%3Cg fill='none' fill-rule='evenodd'%3E%3Cg fill='%23d3d4e8' fill-opacity='0.36'%3E%3Cpath d='M36 34v-4h-2v4h-4v2h4v4h2v-4h4v-2h-4zm0-30V0h-2v4h-4v2h4v4h2V6h4V4h-4zM6 34v-4H4v4H0v2h4v4h2v-4h4v-2H6zM6 4V0H4v4H0v2h4v4h2V6h4V4H6z'/%3E%3C/g%3E%3C/g%3E%3C/svg%3E;imageBackground=none;fontColor=none;noLabel=1;sketch=0;imageBorder=none;" parent="WDFroLOSNas-2Gb8HKun-160" vertex="1">
                    <mxGeometry x="360" width="60" height="60" as="geometry"/>
                </mxCell>
                <mxCell id="WDFroLOSNas-2Gb8HKun-91" value="" style="shape=image;verticalLabelPosition=bottom;labelBackgroundColor=none;verticalAlign=top;aspect=fixed;imageAspect=0;image=data:image/svg+xml,%3Csvg width='60' height='60' viewBox='0 0 60 60' xmlns='http://www.w3.org/2000/svg'%3E%3Cg fill='none' fill-rule='evenodd'%3E%3Cg fill='%23d3d4e8' fill-opacity='0.36'%3E%3Cpath d='M36 34v-4h-2v4h-4v2h4v4h2v-4h4v-2h-4zm0-30V0h-2v4h-4v2h4v4h2V6h4V4h-4zM6 34v-4H4v4H0v2h4v4h2v-4h4v-2H6zM6 4V0H4v4H0v2h4v4h2V6h4V4H6z'/%3E%3C/g%3E%3C/g%3E%3C/svg%3E;imageBackground=none;fontColor=none;noLabel=1;sketch=0;imageBorder=none;" parent="WDFroLOSNas-2Gb8HKun-160" vertex="1">
                    <mxGeometry x="300" width="60" height="60" as="geometry"/>
                </mxCell>
                <mxCell id="WDFroLOSNas-2Gb8HKun-92" value="" style="shape=image;verticalLabelPosition=bottom;labelBackgroundColor=none;verticalAlign=top;aspect=fixed;imageAspect=0;image=data:image/svg+xml,%3Csvg width='60' height='60' viewBox='0 0 60 60' xmlns='http://www.w3.org/2000/svg'%3E%3Cg fill='none' fill-rule='evenodd'%3E%3Cg fill='%23d3d4e8' fill-opacity='0.36'%3E%3Cpath d='M36 34v-4h-2v4h-4v2h4v4h2v-4h4v-2h-4zm0-30V0h-2v4h-4v2h4v4h2V6h4V4h-4zM6 34v-4H4v4H0v2h4v4h2v-4h4v-2H6zM6 4V0H4v4H0v2h4v4h2V6h4V4H6z'/%3E%3C/g%3E%3C/g%3E%3C/svg%3E;imageBackground=none;fontColor=none;noLabel=1;sketch=0;imageBorder=none;" parent="WDFroLOSNas-2Gb8HKun-160" vertex="1">
                    <mxGeometry x="240" width="60" height="60" as="geometry"/>
                </mxCell>
                <mxCell id="WDFroLOSNas-2Gb8HKun-93" value="" style="shape=image;verticalLabelPosition=bottom;labelBackgroundColor=none;verticalAlign=top;aspect=fixed;imageAspect=0;image=data:image/svg+xml,%3Csvg width='60' height='60' viewBox='0 0 60 60' xmlns='http://www.w3.org/2000/svg'%3E%3Cg fill='none' fill-rule='evenodd'%3E%3Cg fill='%23d3d4e8' fill-opacity='0.36'%3E%3Cpath d='M36 34v-4h-2v4h-4v2h4v4h2v-4h4v-2h-4zm0-30V0h-2v4h-4v2h4v4h2V6h4V4h-4zM6 34v-4H4v4H0v2h4v4h2v-4h4v-2H6zM6 4V0H4v4H0v2h4v4h2V6h4V4H6z'/%3E%3C/g%3E%3C/g%3E%3C/svg%3E;imageBackground=none;fontColor=none;noLabel=1;sketch=0;imageBorder=none;" parent="WDFroLOSNas-2Gb8HKun-160" vertex="1">
                    <mxGeometry x="180" width="60" height="60" as="geometry"/>
                </mxCell>
                <mxCell id="WDFroLOSNas-2Gb8HKun-94" value="" style="shape=image;verticalLabelPosition=bottom;labelBackgroundColor=none;verticalAlign=top;aspect=fixed;imageAspect=0;image=data:image/svg+xml,%3Csvg width='60' height='60' viewBox='0 0 60 60' xmlns='http://www.w3.org/2000/svg'%3E%3Cg fill='none' fill-rule='evenodd'%3E%3Cg fill='%23d3d4e8' fill-opacity='0.36'%3E%3Cpath d='M36 34v-4h-2v4h-4v2h4v4h2v-4h4v-2h-4zm0-30V0h-2v4h-4v2h4v4h2V6h4V4h-4zM6 34v-4H4v4H0v2h4v4h2v-4h4v-2H6zM6 4V0H4v4H0v2h4v4h2V6h4V4H6z'/%3E%3C/g%3E%3C/g%3E%3C/svg%3E;imageBackground=none;fontColor=none;noLabel=1;sketch=0;imageBorder=none;" parent="WDFroLOSNas-2Gb8HKun-160" vertex="1">
                    <mxGeometry x="480" width="60" height="60" as="geometry"/>
                </mxCell>
                <mxCell id="WDFroLOSNas-2Gb8HKun-95" value="" style="shape=image;verticalLabelPosition=bottom;labelBackgroundColor=none;verticalAlign=top;aspect=fixed;imageAspect=0;image=data:image/svg+xml,%3Csvg width='60' height='60' viewBox='0 0 60 60' xmlns='http://www.w3.org/2000/svg'%3E%3Cg fill='none' fill-rule='evenodd'%3E%3Cg fill='%23d3d4e8' fill-opacity='0.36'%3E%3Cpath d='M36 34v-4h-2v4h-4v2h4v4h2v-4h4v-2h-4zm0-30V0h-2v4h-4v2h4v4h2V6h4V4h-4zM6 34v-4H4v4H0v2h4v4h2v-4h4v-2H6zM6 4V0H4v4H0v2h4v4h2V6h4V4H6z'/%3E%3C/g%3E%3C/g%3E%3C/svg%3E;imageBackground=none;fontColor=none;noLabel=1;sketch=0;imageBorder=none;" parent="WDFroLOSNas-2Gb8HKun-160" vertex="1">
                    <mxGeometry x="420" width="60" height="60" as="geometry"/>
                </mxCell>
                <mxCell id="WDFroLOSNas-2Gb8HKun-96" value="" style="shape=image;verticalLabelPosition=bottom;labelBackgroundColor=none;verticalAlign=top;aspect=fixed;imageAspect=0;image=data:image/svg+xml,%3Csvg width='60' height='60' viewBox='0 0 60 60' xmlns='http://www.w3.org/2000/svg'%3E%3Cg fill='none' fill-rule='evenodd'%3E%3Cg fill='%23d3d4e8' fill-opacity='0.36'%3E%3Cpath d='M36 34v-4h-2v4h-4v2h4v4h2v-4h4v-2h-4zm0-30V0h-2v4h-4v2h4v4h2V6h4V4h-4zM6 34v-4H4v4H0v2h4v4h2v-4h4v-2H6zM6 4V0H4v4H0v2h4v4h2V6h4V4H6z'/%3E%3C/g%3E%3C/g%3E%3C/svg%3E;imageBackground=none;fontColor=none;noLabel=1;sketch=0;imageBorder=none;" parent="WDFroLOSNas-2Gb8HKun-160" vertex="1">
                    <mxGeometry x="120" y="60" width="60" height="60" as="geometry"/>
                </mxCell>
                <mxCell id="WDFroLOSNas-2Gb8HKun-97" value="" style="shape=image;verticalLabelPosition=bottom;labelBackgroundColor=none;verticalAlign=top;aspect=fixed;imageAspect=0;image=data:image/svg+xml,%3Csvg width='60' height='60' viewBox='0 0 60 60' xmlns='http://www.w3.org/2000/svg'%3E%3Cg fill='none' fill-rule='evenodd'%3E%3Cg fill='%23d3d4e8' fill-opacity='0.36'%3E%3Cpath d='M36 34v-4h-2v4h-4v2h4v4h2v-4h4v-2h-4zm0-30V0h-2v4h-4v2h4v4h2V6h4V4h-4zM6 34v-4H4v4H0v2h4v4h2v-4h4v-2H6zM6 4V0H4v4H0v2h4v4h2V6h4V4H6z'/%3E%3C/g%3E%3C/g%3E%3C/svg%3E;imageBackground=none;fontColor=none;noLabel=1;sketch=0;imageBorder=none;" parent="WDFroLOSNas-2Gb8HKun-160" vertex="1">
                    <mxGeometry x="60" y="60" width="60" height="60" as="geometry"/>
                </mxCell>
                <mxCell id="WDFroLOSNas-2Gb8HKun-98" value="" style="shape=image;verticalLabelPosition=bottom;labelBackgroundColor=none;verticalAlign=top;aspect=fixed;imageAspect=0;image=data:image/svg+xml,%3Csvg width='60' height='60' viewBox='0 0 60 60' xmlns='http://www.w3.org/2000/svg'%3E%3Cg fill='none' fill-rule='evenodd'%3E%3Cg fill='%23d3d4e8' fill-opacity='0.36'%3E%3Cpath d='M36 34v-4h-2v4h-4v2h4v4h2v-4h4v-2h-4zm0-30V0h-2v4h-4v2h4v4h2V6h4V4h-4zM6 34v-4H4v4H0v2h4v4h2v-4h4v-2H6zM6 4V0H4v4H0v2h4v4h2V6h4V4H6z'/%3E%3C/g%3E%3C/g%3E%3C/svg%3E;imageBackground=none;fontColor=none;noLabel=1;sketch=0;imageBorder=none;" parent="WDFroLOSNas-2Gb8HKun-160" vertex="1">
                    <mxGeometry y="60" width="60" height="60" as="geometry"/>
                </mxCell>
                <mxCell id="WDFroLOSNas-2Gb8HKun-99" value="" style="shape=image;verticalLabelPosition=bottom;labelBackgroundColor=none;verticalAlign=top;aspect=fixed;imageAspect=0;image=data:image/svg+xml,%3Csvg width='60' height='60' viewBox='0 0 60 60' xmlns='http://www.w3.org/2000/svg'%3E%3Cg fill='none' fill-rule='evenodd'%3E%3Cg fill='%23d3d4e8' fill-opacity='0.36'%3E%3Cpath d='M36 34v-4h-2v4h-4v2h4v4h2v-4h4v-2h-4zm0-30V0h-2v4h-4v2h4v4h2V6h4V4h-4zM6 34v-4H4v4H0v2h4v4h2v-4h4v-2H6zM6 4V0H4v4H0v2h4v4h2V6h4V4H6z'/%3E%3C/g%3E%3C/g%3E%3C/svg%3E;imageBackground=none;fontColor=none;noLabel=1;sketch=0;imageBorder=none;" parent="WDFroLOSNas-2Gb8HKun-160" vertex="1">
                    <mxGeometry x="360" y="60" width="60" height="60" as="geometry"/>
                </mxCell>
                <mxCell id="WDFroLOSNas-2Gb8HKun-100" value="" style="shape=image;verticalLabelPosition=bottom;labelBackgroundColor=none;verticalAlign=top;aspect=fixed;imageAspect=0;image=data:image/svg+xml,%3Csvg width='60' height='60' viewBox='0 0 60 60' xmlns='http://www.w3.org/2000/svg'%3E%3Cg fill='none' fill-rule='evenodd'%3E%3Cg fill='%23d3d4e8' fill-opacity='0.36'%3E%3Cpath d='M36 34v-4h-2v4h-4v2h4v4h2v-4h4v-2h-4zm0-30V0h-2v4h-4v2h4v4h2V6h4V4h-4zM6 34v-4H4v4H0v2h4v4h2v-4h4v-2H6zM6 4V0H4v4H0v2h4v4h2V6h4V4H6z'/%3E%3C/g%3E%3C/g%3E%3C/svg%3E;imageBackground=none;fontColor=none;noLabel=1;sketch=0;imageBorder=none;" parent="WDFroLOSNas-2Gb8HKun-160" vertex="1">
                    <mxGeometry x="300" y="60" width="60" height="60" as="geometry"/>
                </mxCell>
                <mxCell id="WDFroLOSNas-2Gb8HKun-101" value="" style="shape=image;verticalLabelPosition=bottom;labelBackgroundColor=none;verticalAlign=top;aspect=fixed;imageAspect=0;image=data:image/svg+xml,%3Csvg width='60' height='60' viewBox='0 0 60 60' xmlns='http://www.w3.org/2000/svg'%3E%3Cg fill='none' fill-rule='evenodd'%3E%3Cg fill='%23d3d4e8' fill-opacity='0.36'%3E%3Cpath d='M36 34v-4h-2v4h-4v2h4v4h2v-4h4v-2h-4zm0-30V0h-2v4h-4v2h4v4h2V6h4V4h-4zM6 34v-4H4v4H0v2h4v4h2v-4h4v-2H6zM6 4V0H4v4H0v2h4v4h2V6h4V4H6z'/%3E%3C/g%3E%3C/g%3E%3C/svg%3E;imageBackground=none;fontColor=none;noLabel=1;sketch=0;imageBorder=none;" parent="WDFroLOSNas-2Gb8HKun-160" vertex="1">
                    <mxGeometry x="240" y="60" width="60" height="60" as="geometry"/>
                </mxCell>
                <mxCell id="WDFroLOSNas-2Gb8HKun-102" value="" style="shape=image;verticalLabelPosition=bottom;labelBackgroundColor=none;verticalAlign=top;aspect=fixed;imageAspect=0;image=data:image/svg+xml,%3Csvg width='60' height='60' viewBox='0 0 60 60' xmlns='http://www.w3.org/2000/svg'%3E%3Cg fill='none' fill-rule='evenodd'%3E%3Cg fill='%23d3d4e8' fill-opacity='0.36'%3E%3Cpath d='M36 34v-4h-2v4h-4v2h4v4h2v-4h4v-2h-4zm0-30V0h-2v4h-4v2h4v4h2V6h4V4h-4zM6 34v-4H4v4H0v2h4v4h2v-4h4v-2H6zM6 4V0H4v4H0v2h4v4h2V6h4V4H6z'/%3E%3C/g%3E%3C/g%3E%3C/svg%3E;imageBackground=none;fontColor=none;noLabel=1;sketch=0;imageBorder=none;" parent="WDFroLOSNas-2Gb8HKun-160" vertex="1">
                    <mxGeometry x="180" y="60" width="60" height="60" as="geometry"/>
                </mxCell>
                <mxCell id="WDFroLOSNas-2Gb8HKun-103" value="" style="shape=image;verticalLabelPosition=bottom;labelBackgroundColor=none;verticalAlign=top;aspect=fixed;imageAspect=0;image=data:image/svg+xml,%3Csvg width='60' height='60' viewBox='0 0 60 60' xmlns='http://www.w3.org/2000/svg'%3E%3Cg fill='none' fill-rule='evenodd'%3E%3Cg fill='%23d3d4e8' fill-opacity='0.36'%3E%3Cpath d='M36 34v-4h-2v4h-4v2h4v4h2v-4h4v-2h-4zm0-30V0h-2v4h-4v2h4v4h2V6h4V4h-4zM6 34v-4H4v4H0v2h4v4h2v-4h4v-2H6zM6 4V0H4v4H0v2h4v4h2V6h4V4H6z'/%3E%3C/g%3E%3C/g%3E%3C/svg%3E;imageBackground=none;fontColor=none;noLabel=1;sketch=0;imageBorder=none;" parent="WDFroLOSNas-2Gb8HKun-160" vertex="1">
                    <mxGeometry x="480" y="60" width="60" height="60" as="geometry"/>
                </mxCell>
                <mxCell id="WDFroLOSNas-2Gb8HKun-104" value="" style="shape=image;verticalLabelPosition=bottom;labelBackgroundColor=none;verticalAlign=top;aspect=fixed;imageAspect=0;image=data:image/svg+xml,%3Csvg width='60' height='60' viewBox='0 0 60 60' xmlns='http://www.w3.org/2000/svg'%3E%3Cg fill='none' fill-rule='evenodd'%3E%3Cg fill='%23d3d4e8' fill-opacity='0.36'%3E%3Cpath d='M36 34v-4h-2v4h-4v2h4v4h2v-4h4v-2h-4zm0-30V0h-2v4h-4v2h4v4h2V6h4V4h-4zM6 34v-4H4v4H0v2h4v4h2v-4h4v-2H6zM6 4V0H4v4H0v2h4v4h2V6h4V4H6z'/%3E%3C/g%3E%3C/g%3E%3C/svg%3E;imageBackground=none;fontColor=none;noLabel=1;sketch=0;imageBorder=none;" parent="WDFroLOSNas-2Gb8HKun-160" vertex="1">
                    <mxGeometry x="420" y="60" width="60" height="60" as="geometry"/>
                </mxCell>
                <mxCell id="WDFroLOSNas-2Gb8HKun-105" value="" style="shape=image;verticalLabelPosition=bottom;labelBackgroundColor=none;verticalAlign=top;aspect=fixed;imageAspect=0;image=data:image/svg+xml,%3Csvg width='60' height='60' viewBox='0 0 60 60' xmlns='http://www.w3.org/2000/svg'%3E%3Cg fill='none' fill-rule='evenodd'%3E%3Cg fill='%23d3d4e8' fill-opacity='0.36'%3E%3Cpath d='M36 34v-4h-2v4h-4v2h4v4h2v-4h4v-2h-4zm0-30V0h-2v4h-4v2h4v4h2V6h4V4h-4zM6 34v-4H4v4H0v2h4v4h2v-4h4v-2H6zM6 4V0H4v4H0v2h4v4h2V6h4V4H6z'/%3E%3C/g%3E%3C/g%3E%3C/svg%3E;imageBackground=none;fontColor=none;noLabel=1;sketch=0;imageBorder=none;" parent="WDFroLOSNas-2Gb8HKun-160" vertex="1">
                    <mxGeometry x="120" y="120" width="60" height="60" as="geometry"/>
                </mxCell>
                <mxCell id="WDFroLOSNas-2Gb8HKun-106" value="" style="shape=image;verticalLabelPosition=bottom;labelBackgroundColor=none;verticalAlign=top;aspect=fixed;imageAspect=0;image=data:image/svg+xml,%3Csvg width='60' height='60' viewBox='0 0 60 60' xmlns='http://www.w3.org/2000/svg'%3E%3Cg fill='none' fill-rule='evenodd'%3E%3Cg fill='%23d3d4e8' fill-opacity='0.36'%3E%3Cpath d='M36 34v-4h-2v4h-4v2h4v4h2v-4h4v-2h-4zm0-30V0h-2v4h-4v2h4v4h2V6h4V4h-4zM6 34v-4H4v4H0v2h4v4h2v-4h4v-2H6zM6 4V0H4v4H0v2h4v4h2V6h4V4H6z'/%3E%3C/g%3E%3C/g%3E%3C/svg%3E;imageBackground=none;fontColor=none;noLabel=1;sketch=0;imageBorder=none;" parent="WDFroLOSNas-2Gb8HKun-160" vertex="1">
                    <mxGeometry x="60" y="120" width="60" height="60" as="geometry"/>
                </mxCell>
                <mxCell id="WDFroLOSNas-2Gb8HKun-107" value="" style="shape=image;verticalLabelPosition=bottom;labelBackgroundColor=none;verticalAlign=top;aspect=fixed;imageAspect=0;image=data:image/svg+xml,%3Csvg width='60' height='60' viewBox='0 0 60 60' xmlns='http://www.w3.org/2000/svg'%3E%3Cg fill='none' fill-rule='evenodd'%3E%3Cg fill='%23d3d4e8' fill-opacity='0.36'%3E%3Cpath d='M36 34v-4h-2v4h-4v2h4v4h2v-4h4v-2h-4zm0-30V0h-2v4h-4v2h4v4h2V6h4V4h-4zM6 34v-4H4v4H0v2h4v4h2v-4h4v-2H6zM6 4V0H4v4H0v2h4v4h2V6h4V4H6z'/%3E%3C/g%3E%3C/g%3E%3C/svg%3E;imageBackground=none;fontColor=none;noLabel=1;sketch=0;imageBorder=none;" parent="WDFroLOSNas-2Gb8HKun-160" vertex="1">
                    <mxGeometry y="120" width="60" height="60" as="geometry"/>
                </mxCell>
                <mxCell id="WDFroLOSNas-2Gb8HKun-108" value="" style="shape=image;verticalLabelPosition=bottom;labelBackgroundColor=none;verticalAlign=top;aspect=fixed;imageAspect=0;image=data:image/svg+xml,%3Csvg width='60' height='60' viewBox='0 0 60 60' xmlns='http://www.w3.org/2000/svg'%3E%3Cg fill='none' fill-rule='evenodd'%3E%3Cg fill='%23d3d4e8' fill-opacity='0.36'%3E%3Cpath d='M36 34v-4h-2v4h-4v2h4v4h2v-4h4v-2h-4zm0-30V0h-2v4h-4v2h4v4h2V6h4V4h-4zM6 34v-4H4v4H0v2h4v4h2v-4h4v-2H6zM6 4V0H4v4H0v2h4v4h2V6h4V4H6z'/%3E%3C/g%3E%3C/g%3E%3C/svg%3E;imageBackground=none;fontColor=none;noLabel=1;sketch=0;imageBorder=none;" parent="WDFroLOSNas-2Gb8HKun-160" vertex="1">
                    <mxGeometry x="360" y="120" width="60" height="60" as="geometry"/>
                </mxCell>
                <mxCell id="WDFroLOSNas-2Gb8HKun-109" value="" style="shape=image;verticalLabelPosition=bottom;labelBackgroundColor=none;verticalAlign=top;aspect=fixed;imageAspect=0;image=data:image/svg+xml,%3Csvg width='60' height='60' viewBox='0 0 60 60' xmlns='http://www.w3.org/2000/svg'%3E%3Cg fill='none' fill-rule='evenodd'%3E%3Cg fill='%23d3d4e8' fill-opacity='0.36'%3E%3Cpath d='M36 34v-4h-2v4h-4v2h4v4h2v-4h4v-2h-4zm0-30V0h-2v4h-4v2h4v4h2V6h4V4h-4zM6 34v-4H4v4H0v2h4v4h2v-4h4v-2H6zM6 4V0H4v4H0v2h4v4h2V6h4V4H6z'/%3E%3C/g%3E%3C/g%3E%3C/svg%3E;imageBackground=none;fontColor=none;noLabel=1;sketch=0;imageBorder=none;" parent="WDFroLOSNas-2Gb8HKun-160" vertex="1">
                    <mxGeometry x="300" y="120" width="60" height="60" as="geometry"/>
                </mxCell>
                <mxCell id="WDFroLOSNas-2Gb8HKun-110" value="" style="shape=image;verticalLabelPosition=bottom;labelBackgroundColor=none;verticalAlign=top;aspect=fixed;imageAspect=0;image=data:image/svg+xml,%3Csvg width='60' height='60' viewBox='0 0 60 60' xmlns='http://www.w3.org/2000/svg'%3E%3Cg fill='none' fill-rule='evenodd'%3E%3Cg fill='%23d3d4e8' fill-opacity='0.36'%3E%3Cpath d='M36 34v-4h-2v4h-4v2h4v4h2v-4h4v-2h-4zm0-30V0h-2v4h-4v2h4v4h2V6h4V4h-4zM6 34v-4H4v4H0v2h4v4h2v-4h4v-2H6zM6 4V0H4v4H0v2h4v4h2V6h4V4H6z'/%3E%3C/g%3E%3C/g%3E%3C/svg%3E;imageBackground=none;fontColor=none;noLabel=1;sketch=0;imageBorder=none;" parent="WDFroLOSNas-2Gb8HKun-160" vertex="1">
                    <mxGeometry x="240" y="120" width="60" height="60" as="geometry"/>
                </mxCell>
                <mxCell id="WDFroLOSNas-2Gb8HKun-111" value="" style="shape=image;verticalLabelPosition=bottom;labelBackgroundColor=none;verticalAlign=top;aspect=fixed;imageAspect=0;image=data:image/svg+xml,%3Csvg width='60' height='60' viewBox='0 0 60 60' xmlns='http://www.w3.org/2000/svg'%3E%3Cg fill='none' fill-rule='evenodd'%3E%3Cg fill='%23d3d4e8' fill-opacity='0.36'%3E%3Cpath d='M36 34v-4h-2v4h-4v2h4v4h2v-4h4v-2h-4zm0-30V0h-2v4h-4v2h4v4h2V6h4V4h-4zM6 34v-4H4v4H0v2h4v4h2v-4h4v-2H6zM6 4V0H4v4H0v2h4v4h2V6h4V4H6z'/%3E%3C/g%3E%3C/g%3E%3C/svg%3E;imageBackground=none;fontColor=none;noLabel=1;sketch=0;imageBorder=none;" parent="WDFroLOSNas-2Gb8HKun-160" vertex="1">
                    <mxGeometry x="180" y="120" width="60" height="60" as="geometry"/>
                </mxCell>
                <mxCell id="WDFroLOSNas-2Gb8HKun-112" value="" style="shape=image;verticalLabelPosition=bottom;labelBackgroundColor=none;verticalAlign=top;aspect=fixed;imageAspect=0;image=data:image/svg+xml,%3Csvg width='60' height='60' viewBox='0 0 60 60' xmlns='http://www.w3.org/2000/svg'%3E%3Cg fill='none' fill-rule='evenodd'%3E%3Cg fill='%23d3d4e8' fill-opacity='0.36'%3E%3Cpath d='M36 34v-4h-2v4h-4v2h4v4h2v-4h4v-2h-4zm0-30V0h-2v4h-4v2h4v4h2V6h4V4h-4zM6 34v-4H4v4H0v2h4v4h2v-4h4v-2H6zM6 4V0H4v4H0v2h4v4h2V6h4V4H6z'/%3E%3C/g%3E%3C/g%3E%3C/svg%3E;imageBackground=none;fontColor=none;noLabel=1;sketch=0;imageBorder=none;" parent="WDFroLOSNas-2Gb8HKun-160" vertex="1">
                    <mxGeometry x="480" y="120" width="60" height="60" as="geometry"/>
                </mxCell>
                <mxCell id="WDFroLOSNas-2Gb8HKun-113" value="" style="shape=image;verticalLabelPosition=bottom;labelBackgroundColor=none;verticalAlign=top;aspect=fixed;imageAspect=0;image=data:image/svg+xml,%3Csvg width='60' height='60' viewBox='0 0 60 60' xmlns='http://www.w3.org/2000/svg'%3E%3Cg fill='none' fill-rule='evenodd'%3E%3Cg fill='%23d3d4e8' fill-opacity='0.36'%3E%3Cpath d='M36 34v-4h-2v4h-4v2h4v4h2v-4h4v-2h-4zm0-30V0h-2v4h-4v2h4v4h2V6h4V4h-4zM6 34v-4H4v4H0v2h4v4h2v-4h4v-2H6zM6 4V0H4v4H0v2h4v4h2V6h4V4H6z'/%3E%3C/g%3E%3C/g%3E%3C/svg%3E;imageBackground=none;fontColor=none;noLabel=1;sketch=0;imageBorder=none;" parent="WDFroLOSNas-2Gb8HKun-160" vertex="1">
                    <mxGeometry x="420" y="120" width="60" height="60" as="geometry"/>
                </mxCell>
                <mxCell id="WDFroLOSNas-2Gb8HKun-114" value="" style="shape=image;verticalLabelPosition=bottom;labelBackgroundColor=none;verticalAlign=top;aspect=fixed;imageAspect=0;image=data:image/svg+xml,%3Csvg width='60' height='60' viewBox='0 0 60 60' xmlns='http://www.w3.org/2000/svg'%3E%3Cg fill='none' fill-rule='evenodd'%3E%3Cg fill='%23d3d4e8' fill-opacity='0.36'%3E%3Cpath d='M36 34v-4h-2v4h-4v2h4v4h2v-4h4v-2h-4zm0-30V0h-2v4h-4v2h4v4h2V6h4V4h-4zM6 34v-4H4v4H0v2h4v4h2v-4h4v-2H6zM6 4V0H4v4H0v2h4v4h2V6h4V4H6z'/%3E%3C/g%3E%3C/g%3E%3C/svg%3E;imageBackground=none;fontColor=none;noLabel=1;sketch=0;imageBorder=none;" parent="WDFroLOSNas-2Gb8HKun-160" vertex="1">
                    <mxGeometry x="120" y="180" width="60" height="60" as="geometry"/>
                </mxCell>
                <mxCell id="WDFroLOSNas-2Gb8HKun-115" value="" style="shape=image;verticalLabelPosition=bottom;labelBackgroundColor=none;verticalAlign=top;aspect=fixed;imageAspect=0;image=data:image/svg+xml,%3Csvg width='60' height='60' viewBox='0 0 60 60' xmlns='http://www.w3.org/2000/svg'%3E%3Cg fill='none' fill-rule='evenodd'%3E%3Cg fill='%23d3d4e8' fill-opacity='0.36'%3E%3Cpath d='M36 34v-4h-2v4h-4v2h4v4h2v-4h4v-2h-4zm0-30V0h-2v4h-4v2h4v4h2V6h4V4h-4zM6 34v-4H4v4H0v2h4v4h2v-4h4v-2H6zM6 4V0H4v4H0v2h4v4h2V6h4V4H6z'/%3E%3C/g%3E%3C/g%3E%3C/svg%3E;imageBackground=none;fontColor=none;noLabel=1;sketch=0;imageBorder=none;" parent="WDFroLOSNas-2Gb8HKun-160" vertex="1">
                    <mxGeometry x="60" y="180" width="60" height="60" as="geometry"/>
                </mxCell>
                <mxCell id="WDFroLOSNas-2Gb8HKun-116" value="" style="shape=image;verticalLabelPosition=bottom;labelBackgroundColor=none;verticalAlign=top;aspect=fixed;imageAspect=0;image=data:image/svg+xml,%3Csvg width='60' height='60' viewBox='0 0 60 60' xmlns='http://www.w3.org/2000/svg'%3E%3Cg fill='none' fill-rule='evenodd'%3E%3Cg fill='%23d3d4e8' fill-opacity='0.36'%3E%3Cpath d='M36 34v-4h-2v4h-4v2h4v4h2v-4h4v-2h-4zm0-30V0h-2v4h-4v2h4v4h2V6h4V4h-4zM6 34v-4H4v4H0v2h4v4h2v-4h4v-2H6zM6 4V0H4v4H0v2h4v4h2V6h4V4H6z'/%3E%3C/g%3E%3C/g%3E%3C/svg%3E;imageBackground=none;fontColor=none;noLabel=1;sketch=0;imageBorder=none;" parent="WDFroLOSNas-2Gb8HKun-160" vertex="1">
                    <mxGeometry y="180" width="60" height="60" as="geometry"/>
                </mxCell>
                <mxCell id="WDFroLOSNas-2Gb8HKun-117" value="" style="shape=image;verticalLabelPosition=bottom;labelBackgroundColor=none;verticalAlign=top;aspect=fixed;imageAspect=0;image=data:image/svg+xml,%3Csvg width='60' height='60' viewBox='0 0 60 60' xmlns='http://www.w3.org/2000/svg'%3E%3Cg fill='none' fill-rule='evenodd'%3E%3Cg fill='%23d3d4e8' fill-opacity='0.36'%3E%3Cpath d='M36 34v-4h-2v4h-4v2h4v4h2v-4h4v-2h-4zm0-30V0h-2v4h-4v2h4v4h2V6h4V4h-4zM6 34v-4H4v4H0v2h4v4h2v-4h4v-2H6zM6 4V0H4v4H0v2h4v4h2V6h4V4H6z'/%3E%3C/g%3E%3C/g%3E%3C/svg%3E;imageBackground=none;fontColor=none;noLabel=1;sketch=0;imageBorder=none;" parent="WDFroLOSNas-2Gb8HKun-160" vertex="1">
                    <mxGeometry x="360" y="180" width="60" height="60" as="geometry"/>
                </mxCell>
                <mxCell id="WDFroLOSNas-2Gb8HKun-118" value="" style="shape=image;verticalLabelPosition=bottom;labelBackgroundColor=none;verticalAlign=top;aspect=fixed;imageAspect=0;image=data:image/svg+xml,%3Csvg width='60' height='60' viewBox='0 0 60 60' xmlns='http://www.w3.org/2000/svg'%3E%3Cg fill='none' fill-rule='evenodd'%3E%3Cg fill='%23d3d4e8' fill-opacity='0.36'%3E%3Cpath d='M36 34v-4h-2v4h-4v2h4v4h2v-4h4v-2h-4zm0-30V0h-2v4h-4v2h4v4h2V6h4V4h-4zM6 34v-4H4v4H0v2h4v4h2v-4h4v-2H6zM6 4V0H4v4H0v2h4v4h2V6h4V4H6z'/%3E%3C/g%3E%3C/g%3E%3C/svg%3E;imageBackground=none;fontColor=none;noLabel=1;sketch=0;imageBorder=none;" parent="WDFroLOSNas-2Gb8HKun-160" vertex="1">
                    <mxGeometry x="300" y="180" width="60" height="60" as="geometry"/>
                </mxCell>
                <mxCell id="WDFroLOSNas-2Gb8HKun-119" value="" style="shape=image;verticalLabelPosition=bottom;labelBackgroundColor=none;verticalAlign=top;aspect=fixed;imageAspect=0;image=data:image/svg+xml,%3Csvg width='60' height='60' viewBox='0 0 60 60' xmlns='http://www.w3.org/2000/svg'%3E%3Cg fill='none' fill-rule='evenodd'%3E%3Cg fill='%23d3d4e8' fill-opacity='0.36'%3E%3Cpath d='M36 34v-4h-2v4h-4v2h4v4h2v-4h4v-2h-4zm0-30V0h-2v4h-4v2h4v4h2V6h4V4h-4zM6 34v-4H4v4H0v2h4v4h2v-4h4v-2H6zM6 4V0H4v4H0v2h4v4h2V6h4V4H6z'/%3E%3C/g%3E%3C/g%3E%3C/svg%3E;imageBackground=none;fontColor=none;noLabel=1;sketch=0;imageBorder=none;" parent="WDFroLOSNas-2Gb8HKun-160" vertex="1">
                    <mxGeometry x="240" y="180" width="60" height="60" as="geometry"/>
                </mxCell>
                <mxCell id="WDFroLOSNas-2Gb8HKun-120" value="" style="shape=image;verticalLabelPosition=bottom;labelBackgroundColor=none;verticalAlign=top;aspect=fixed;imageAspect=0;image=data:image/svg+xml,%3Csvg width='60' height='60' viewBox='0 0 60 60' xmlns='http://www.w3.org/2000/svg'%3E%3Cg fill='none' fill-rule='evenodd'%3E%3Cg fill='%23d3d4e8' fill-opacity='0.36'%3E%3Cpath d='M36 34v-4h-2v4h-4v2h4v4h2v-4h4v-2h-4zm0-30V0h-2v4h-4v2h4v4h2V6h4V4h-4zM6 34v-4H4v4H0v2h4v4h2v-4h4v-2H6zM6 4V0H4v4H0v2h4v4h2V6h4V4H6z'/%3E%3C/g%3E%3C/g%3E%3C/svg%3E;imageBackground=none;fontColor=none;noLabel=1;sketch=0;imageBorder=none;" parent="WDFroLOSNas-2Gb8HKun-160" vertex="1">
                    <mxGeometry x="180" y="180" width="60" height="60" as="geometry"/>
                </mxCell>
                <mxCell id="WDFroLOSNas-2Gb8HKun-121" value="" style="shape=image;verticalLabelPosition=bottom;labelBackgroundColor=none;verticalAlign=top;aspect=fixed;imageAspect=0;image=data:image/svg+xml,%3Csvg width='60' height='60' viewBox='0 0 60 60' xmlns='http://www.w3.org/2000/svg'%3E%3Cg fill='none' fill-rule='evenodd'%3E%3Cg fill='%23d3d4e8' fill-opacity='0.36'%3E%3Cpath d='M36 34v-4h-2v4h-4v2h4v4h2v-4h4v-2h-4zm0-30V0h-2v4h-4v2h4v4h2V6h4V4h-4zM6 34v-4H4v4H0v2h4v4h2v-4h4v-2H6zM6 4V0H4v4H0v2h4v4h2V6h4V4H6z'/%3E%3C/g%3E%3C/g%3E%3C/svg%3E;imageBackground=none;fontColor=none;noLabel=1;sketch=0;imageBorder=none;" parent="WDFroLOSNas-2Gb8HKun-160" vertex="1">
                    <mxGeometry x="480" y="180" width="60" height="60" as="geometry"/>
                </mxCell>
                <mxCell id="WDFroLOSNas-2Gb8HKun-122" value="" style="shape=image;verticalLabelPosition=bottom;labelBackgroundColor=none;verticalAlign=top;aspect=fixed;imageAspect=0;image=data:image/svg+xml,%3Csvg width='60' height='60' viewBox='0 0 60 60' xmlns='http://www.w3.org/2000/svg'%3E%3Cg fill='none' fill-rule='evenodd'%3E%3Cg fill='%23d3d4e8' fill-opacity='0.36'%3E%3Cpath d='M36 34v-4h-2v4h-4v2h4v4h2v-4h4v-2h-4zm0-30V0h-2v4h-4v2h4v4h2V6h4V4h-4zM6 34v-4H4v4H0v2h4v4h2v-4h4v-2H6zM6 4V0H4v4H0v2h4v4h2V6h4V4H6z'/%3E%3C/g%3E%3C/g%3E%3C/svg%3E;imageBackground=none;fontColor=none;noLabel=1;sketch=0;imageBorder=none;" parent="WDFroLOSNas-2Gb8HKun-160" vertex="1">
                    <mxGeometry x="420" y="180" width="60" height="60" as="geometry"/>
                </mxCell>
                <mxCell id="WDFroLOSNas-2Gb8HKun-123" value="" style="shape=image;verticalLabelPosition=bottom;labelBackgroundColor=none;verticalAlign=top;aspect=fixed;imageAspect=0;image=data:image/svg+xml,%3Csvg width='60' height='60' viewBox='0 0 60 60' xmlns='http://www.w3.org/2000/svg'%3E%3Cg fill='none' fill-rule='evenodd'%3E%3Cg fill='%23d3d4e8' fill-opacity='0.36'%3E%3Cpath d='M36 34v-4h-2v4h-4v2h4v4h2v-4h4v-2h-4zm0-30V0h-2v4h-4v2h4v4h2V6h4V4h-4zM6 34v-4H4v4H0v2h4v4h2v-4h4v-2H6zM6 4V0H4v4H0v2h4v4h2V6h4V4H6z'/%3E%3C/g%3E%3C/g%3E%3C/svg%3E;imageBackground=none;fontColor=none;noLabel=1;sketch=0;imageBorder=none;" parent="WDFroLOSNas-2Gb8HKun-160" vertex="1">
                    <mxGeometry x="120" y="240" width="60" height="60" as="geometry"/>
                </mxCell>
                <mxCell id="WDFroLOSNas-2Gb8HKun-124" value="" style="shape=image;verticalLabelPosition=bottom;labelBackgroundColor=none;verticalAlign=top;aspect=fixed;imageAspect=0;image=data:image/svg+xml,%3Csvg width='60' height='60' viewBox='0 0 60 60' xmlns='http://www.w3.org/2000/svg'%3E%3Cg fill='none' fill-rule='evenodd'%3E%3Cg fill='%23d3d4e8' fill-opacity='0.36'%3E%3Cpath d='M36 34v-4h-2v4h-4v2h4v4h2v-4h4v-2h-4zm0-30V0h-2v4h-4v2h4v4h2V6h4V4h-4zM6 34v-4H4v4H0v2h4v4h2v-4h4v-2H6zM6 4V0H4v4H0v2h4v4h2V6h4V4H6z'/%3E%3C/g%3E%3C/g%3E%3C/svg%3E;imageBackground=none;fontColor=none;noLabel=1;sketch=0;imageBorder=none;" parent="WDFroLOSNas-2Gb8HKun-160" vertex="1">
                    <mxGeometry x="60" y="240" width="60" height="60" as="geometry"/>
                </mxCell>
                <mxCell id="WDFroLOSNas-2Gb8HKun-125" value="" style="shape=image;verticalLabelPosition=bottom;labelBackgroundColor=none;verticalAlign=top;aspect=fixed;imageAspect=0;image=data:image/svg+xml,%3Csvg width='60' height='60' viewBox='0 0 60 60' xmlns='http://www.w3.org/2000/svg'%3E%3Cg fill='none' fill-rule='evenodd'%3E%3Cg fill='%23d3d4e8' fill-opacity='0.36'%3E%3Cpath d='M36 34v-4h-2v4h-4v2h4v4h2v-4h4v-2h-4zm0-30V0h-2v4h-4v2h4v4h2V6h4V4h-4zM6 34v-4H4v4H0v2h4v4h2v-4h4v-2H6zM6 4V0H4v4H0v2h4v4h2V6h4V4H6z'/%3E%3C/g%3E%3C/g%3E%3C/svg%3E;imageBackground=none;fontColor=none;noLabel=1;sketch=0;imageBorder=none;" parent="WDFroLOSNas-2Gb8HKun-160" vertex="1">
                    <mxGeometry y="240" width="60" height="60" as="geometry"/>
                </mxCell>
                <mxCell id="WDFroLOSNas-2Gb8HKun-126" value="" style="shape=image;verticalLabelPosition=bottom;labelBackgroundColor=none;verticalAlign=top;aspect=fixed;imageAspect=0;image=data:image/svg+xml,%3Csvg width='60' height='60' viewBox='0 0 60 60' xmlns='http://www.w3.org/2000/svg'%3E%3Cg fill='none' fill-rule='evenodd'%3E%3Cg fill='%23d3d4e8' fill-opacity='0.36'%3E%3Cpath d='M36 34v-4h-2v4h-4v2h4v4h2v-4h4v-2h-4zm0-30V0h-2v4h-4v2h4v4h2V6h4V4h-4zM6 34v-4H4v4H0v2h4v4h2v-4h4v-2H6zM6 4V0H4v4H0v2h4v4h2V6h4V4H6z'/%3E%3C/g%3E%3C/g%3E%3C/svg%3E;imageBackground=none;fontColor=none;noLabel=1;sketch=0;imageBorder=none;" parent="WDFroLOSNas-2Gb8HKun-160" vertex="1">
                    <mxGeometry x="360" y="240" width="60" height="60" as="geometry"/>
                </mxCell>
                <mxCell id="WDFroLOSNas-2Gb8HKun-127" value="" style="shape=image;verticalLabelPosition=bottom;labelBackgroundColor=none;verticalAlign=top;aspect=fixed;imageAspect=0;image=data:image/svg+xml,%3Csvg width='60' height='60' viewBox='0 0 60 60' xmlns='http://www.w3.org/2000/svg'%3E%3Cg fill='none' fill-rule='evenodd'%3E%3Cg fill='%23d3d4e8' fill-opacity='0.36'%3E%3Cpath d='M36 34v-4h-2v4h-4v2h4v4h2v-4h4v-2h-4zm0-30V0h-2v4h-4v2h4v4h2V6h4V4h-4zM6 34v-4H4v4H0v2h4v4h2v-4h4v-2H6zM6 4V0H4v4H0v2h4v4h2V6h4V4H6z'/%3E%3C/g%3E%3C/g%3E%3C/svg%3E;imageBackground=none;fontColor=none;noLabel=1;sketch=0;imageBorder=none;" parent="WDFroLOSNas-2Gb8HKun-160" vertex="1">
                    <mxGeometry x="300" y="240" width="60" height="60" as="geometry"/>
                </mxCell>
                <mxCell id="WDFroLOSNas-2Gb8HKun-128" value="" style="shape=image;verticalLabelPosition=bottom;labelBackgroundColor=none;verticalAlign=top;aspect=fixed;imageAspect=0;image=data:image/svg+xml,%3Csvg width='60' height='60' viewBox='0 0 60 60' xmlns='http://www.w3.org/2000/svg'%3E%3Cg fill='none' fill-rule='evenodd'%3E%3Cg fill='%23d3d4e8' fill-opacity='0.36'%3E%3Cpath d='M36 34v-4h-2v4h-4v2h4v4h2v-4h4v-2h-4zm0-30V0h-2v4h-4v2h4v4h2V6h4V4h-4zM6 34v-4H4v4H0v2h4v4h2v-4h4v-2H6zM6 4V0H4v4H0v2h4v4h2V6h4V4H6z'/%3E%3C/g%3E%3C/g%3E%3C/svg%3E;imageBackground=none;fontColor=none;noLabel=1;sketch=0;imageBorder=none;" parent="WDFroLOSNas-2Gb8HKun-160" vertex="1">
                    <mxGeometry x="240" y="240" width="60" height="60" as="geometry"/>
                </mxCell>
                <mxCell id="WDFroLOSNas-2Gb8HKun-129" value="" style="shape=image;verticalLabelPosition=bottom;labelBackgroundColor=none;verticalAlign=top;aspect=fixed;imageAspect=0;image=data:image/svg+xml,%3Csvg width='60' height='60' viewBox='0 0 60 60' xmlns='http://www.w3.org/2000/svg'%3E%3Cg fill='none' fill-rule='evenodd'%3E%3Cg fill='%23d3d4e8' fill-opacity='0.36'%3E%3Cpath d='M36 34v-4h-2v4h-4v2h4v4h2v-4h4v-2h-4zm0-30V0h-2v4h-4v2h4v4h2V6h4V4h-4zM6 34v-4H4v4H0v2h4v4h2v-4h4v-2H6zM6 4V0H4v4H0v2h4v4h2V6h4V4H6z'/%3E%3C/g%3E%3C/g%3E%3C/svg%3E;imageBackground=none;fontColor=none;noLabel=1;sketch=0;imageBorder=none;" parent="WDFroLOSNas-2Gb8HKun-160" vertex="1">
                    <mxGeometry x="180" y="240" width="60" height="60" as="geometry"/>
                </mxCell>
                <mxCell id="WDFroLOSNas-2Gb8HKun-130" value="" style="shape=image;verticalLabelPosition=bottom;labelBackgroundColor=none;verticalAlign=top;aspect=fixed;imageAspect=0;image=data:image/svg+xml,%3Csvg width='60' height='60' viewBox='0 0 60 60' xmlns='http://www.w3.org/2000/svg'%3E%3Cg fill='none' fill-rule='evenodd'%3E%3Cg fill='%23d3d4e8' fill-opacity='0.36'%3E%3Cpath d='M36 34v-4h-2v4h-4v2h4v4h2v-4h4v-2h-4zm0-30V0h-2v4h-4v2h4v4h2V6h4V4h-4zM6 34v-4H4v4H0v2h4v4h2v-4h4v-2H6zM6 4V0H4v4H0v2h4v4h2V6h4V4H6z'/%3E%3C/g%3E%3C/g%3E%3C/svg%3E;imageBackground=none;fontColor=none;noLabel=1;sketch=0;imageBorder=none;" parent="WDFroLOSNas-2Gb8HKun-160" vertex="1">
                    <mxGeometry x="480" y="240" width="60" height="60" as="geometry"/>
                </mxCell>
                <mxCell id="WDFroLOSNas-2Gb8HKun-131" value="" style="shape=image;verticalLabelPosition=bottom;labelBackgroundColor=none;verticalAlign=top;aspect=fixed;imageAspect=0;image=data:image/svg+xml,%3Csvg width='60' height='60' viewBox='0 0 60 60' xmlns='http://www.w3.org/2000/svg'%3E%3Cg fill='none' fill-rule='evenodd'%3E%3Cg fill='%23d3d4e8' fill-opacity='0.36'%3E%3Cpath d='M36 34v-4h-2v4h-4v2h4v4h2v-4h4v-2h-4zm0-30V0h-2v4h-4v2h4v4h2V6h4V4h-4zM6 34v-4H4v4H0v2h4v4h2v-4h4v-2H6zM6 4V0H4v4H0v2h4v4h2V6h4V4H6z'/%3E%3C/g%3E%3C/g%3E%3C/svg%3E;imageBackground=none;fontColor=none;noLabel=1;sketch=0;imageBorder=none;" parent="WDFroLOSNas-2Gb8HKun-160" vertex="1">
                    <mxGeometry x="420" y="240" width="60" height="60" as="geometry"/>
                </mxCell>
                <mxCell id="WDFroLOSNas-2Gb8HKun-132" value="" style="shape=image;verticalLabelPosition=bottom;labelBackgroundColor=none;verticalAlign=top;aspect=fixed;imageAspect=0;image=data:image/svg+xml,%3Csvg width='60' height='60' viewBox='0 0 60 60' xmlns='http://www.w3.org/2000/svg'%3E%3Cg fill='none' fill-rule='evenodd'%3E%3Cg fill='%23d3d4e8' fill-opacity='0.36'%3E%3Cpath d='M36 34v-4h-2v4h-4v2h4v4h2v-4h4v-2h-4zm0-30V0h-2v4h-4v2h4v4h2V6h4V4h-4zM6 34v-4H4v4H0v2h4v4h2v-4h4v-2H6zM6 4V0H4v4H0v2h4v4h2V6h4V4H6z'/%3E%3C/g%3E%3C/g%3E%3C/svg%3E;imageBackground=none;fontColor=none;noLabel=1;sketch=0;imageBorder=none;" parent="WDFroLOSNas-2Gb8HKun-160" vertex="1">
                    <mxGeometry x="120" y="300" width="60" height="60" as="geometry"/>
                </mxCell>
                <mxCell id="WDFroLOSNas-2Gb8HKun-133" value="" style="shape=image;verticalLabelPosition=bottom;labelBackgroundColor=none;verticalAlign=top;aspect=fixed;imageAspect=0;image=data:image/svg+xml,%3Csvg width='60' height='60' viewBox='0 0 60 60' xmlns='http://www.w3.org/2000/svg'%3E%3Cg fill='none' fill-rule='evenodd'%3E%3Cg fill='%23d3d4e8' fill-opacity='0.36'%3E%3Cpath d='M36 34v-4h-2v4h-4v2h4v4h2v-4h4v-2h-4zm0-30V0h-2v4h-4v2h4v4h2V6h4V4h-4zM6 34v-4H4v4H0v2h4v4h2v-4h4v-2H6zM6 4V0H4v4H0v2h4v4h2V6h4V4H6z'/%3E%3C/g%3E%3C/g%3E%3C/svg%3E;imageBackground=none;fontColor=none;noLabel=1;sketch=0;imageBorder=none;" parent="WDFroLOSNas-2Gb8HKun-160" vertex="1">
                    <mxGeometry x="60" y="300" width="60" height="60" as="geometry"/>
                </mxCell>
                <mxCell id="WDFroLOSNas-2Gb8HKun-134" value="" style="shape=image;verticalLabelPosition=bottom;labelBackgroundColor=none;verticalAlign=top;aspect=fixed;imageAspect=0;image=data:image/svg+xml,%3Csvg width='60' height='60' viewBox='0 0 60 60' xmlns='http://www.w3.org/2000/svg'%3E%3Cg fill='none' fill-rule='evenodd'%3E%3Cg fill='%23d3d4e8' fill-opacity='0.36'%3E%3Cpath d='M36 34v-4h-2v4h-4v2h4v4h2v-4h4v-2h-4zm0-30V0h-2v4h-4v2h4v4h2V6h4V4h-4zM6 34v-4H4v4H0v2h4v4h2v-4h4v-2H6zM6 4V0H4v4H0v2h4v4h2V6h4V4H6z'/%3E%3C/g%3E%3C/g%3E%3C/svg%3E;imageBackground=none;fontColor=none;noLabel=1;sketch=0;imageBorder=none;" parent="WDFroLOSNas-2Gb8HKun-160" vertex="1">
                    <mxGeometry y="300" width="60" height="60" as="geometry"/>
                </mxCell>
                <mxCell id="WDFroLOSNas-2Gb8HKun-135" value="" style="shape=image;verticalLabelPosition=bottom;labelBackgroundColor=none;verticalAlign=top;aspect=fixed;imageAspect=0;image=data:image/svg+xml,%3Csvg width='60' height='60' viewBox='0 0 60 60' xmlns='http://www.w3.org/2000/svg'%3E%3Cg fill='none' fill-rule='evenodd'%3E%3Cg fill='%23d3d4e8' fill-opacity='0.36'%3E%3Cpath d='M36 34v-4h-2v4h-4v2h4v4h2v-4h4v-2h-4zm0-30V0h-2v4h-4v2h4v4h2V6h4V4h-4zM6 34v-4H4v4H0v2h4v4h2v-4h4v-2H6zM6 4V0H4v4H0v2h4v4h2V6h4V4H6z'/%3E%3C/g%3E%3C/g%3E%3C/svg%3E;imageBackground=none;fontColor=none;noLabel=1;sketch=0;imageBorder=none;" parent="WDFroLOSNas-2Gb8HKun-160" vertex="1">
                    <mxGeometry x="360" y="300" width="60" height="60" as="geometry"/>
                </mxCell>
                <mxCell id="WDFroLOSNas-2Gb8HKun-136" value="" style="shape=image;verticalLabelPosition=bottom;labelBackgroundColor=none;verticalAlign=top;aspect=fixed;imageAspect=0;image=data:image/svg+xml,%3Csvg width='60' height='60' viewBox='0 0 60 60' xmlns='http://www.w3.org/2000/svg'%3E%3Cg fill='none' fill-rule='evenodd'%3E%3Cg fill='%23d3d4e8' fill-opacity='0.36'%3E%3Cpath d='M36 34v-4h-2v4h-4v2h4v4h2v-4h4v-2h-4zm0-30V0h-2v4h-4v2h4v4h2V6h4V4h-4zM6 34v-4H4v4H0v2h4v4h2v-4h4v-2H6zM6 4V0H4v4H0v2h4v4h2V6h4V4H6z'/%3E%3C/g%3E%3C/g%3E%3C/svg%3E;imageBackground=none;fontColor=none;noLabel=1;sketch=0;imageBorder=none;" parent="WDFroLOSNas-2Gb8HKun-160" vertex="1">
                    <mxGeometry x="300" y="300" width="60" height="60" as="geometry"/>
                </mxCell>
                <mxCell id="WDFroLOSNas-2Gb8HKun-137" value="" style="shape=image;verticalLabelPosition=bottom;labelBackgroundColor=none;verticalAlign=top;aspect=fixed;imageAspect=0;image=data:image/svg+xml,%3Csvg width='60' height='60' viewBox='0 0 60 60' xmlns='http://www.w3.org/2000/svg'%3E%3Cg fill='none' fill-rule='evenodd'%3E%3Cg fill='%23d3d4e8' fill-opacity='0.36'%3E%3Cpath d='M36 34v-4h-2v4h-4v2h4v4h2v-4h4v-2h-4zm0-30V0h-2v4h-4v2h4v4h2V6h4V4h-4zM6 34v-4H4v4H0v2h4v4h2v-4h4v-2H6zM6 4V0H4v4H0v2h4v4h2V6h4V4H6z'/%3E%3C/g%3E%3C/g%3E%3C/svg%3E;imageBackground=none;fontColor=none;noLabel=1;sketch=0;imageBorder=none;" parent="WDFroLOSNas-2Gb8HKun-160" vertex="1">
                    <mxGeometry x="240" y="300" width="60" height="60" as="geometry"/>
                </mxCell>
                <mxCell id="WDFroLOSNas-2Gb8HKun-138" value="" style="shape=image;verticalLabelPosition=bottom;labelBackgroundColor=none;verticalAlign=top;aspect=fixed;imageAspect=0;image=data:image/svg+xml,%3Csvg width='60' height='60' viewBox='0 0 60 60' xmlns='http://www.w3.org/2000/svg'%3E%3Cg fill='none' fill-rule='evenodd'%3E%3Cg fill='%23d3d4e8' fill-opacity='0.36'%3E%3Cpath d='M36 34v-4h-2v4h-4v2h4v4h2v-4h4v-2h-4zm0-30V0h-2v4h-4v2h4v4h2V6h4V4h-4zM6 34v-4H4v4H0v2h4v4h2v-4h4v-2H6zM6 4V0H4v4H0v2h4v4h2V6h4V4H6z'/%3E%3C/g%3E%3C/g%3E%3C/svg%3E;imageBackground=none;fontColor=none;noLabel=1;sketch=0;imageBorder=none;" parent="WDFroLOSNas-2Gb8HKun-160" vertex="1">
                    <mxGeometry x="180" y="300" width="60" height="60" as="geometry"/>
                </mxCell>
                <mxCell id="WDFroLOSNas-2Gb8HKun-139" value="" style="shape=image;verticalLabelPosition=bottom;labelBackgroundColor=none;verticalAlign=top;aspect=fixed;imageAspect=0;image=data:image/svg+xml,%3Csvg width='60' height='60' viewBox='0 0 60 60' xmlns='http://www.w3.org/2000/svg'%3E%3Cg fill='none' fill-rule='evenodd'%3E%3Cg fill='%23d3d4e8' fill-opacity='0.36'%3E%3Cpath d='M36 34v-4h-2v4h-4v2h4v4h2v-4h4v-2h-4zm0-30V0h-2v4h-4v2h4v4h2V6h4V4h-4zM6 34v-4H4v4H0v2h4v4h2v-4h4v-2H6zM6 4V0H4v4H0v2h4v4h2V6h4V4H6z'/%3E%3C/g%3E%3C/g%3E%3C/svg%3E;imageBackground=none;fontColor=none;noLabel=1;sketch=0;imageBorder=none;" parent="WDFroLOSNas-2Gb8HKun-160" vertex="1">
                    <mxGeometry x="480" y="300" width="60" height="60" as="geometry"/>
                </mxCell>
                <mxCell id="WDFroLOSNas-2Gb8HKun-140" value="" style="shape=image;verticalLabelPosition=bottom;labelBackgroundColor=none;verticalAlign=top;aspect=fixed;imageAspect=0;image=data:image/svg+xml,%3Csvg width='60' height='60' viewBox='0 0 60 60' xmlns='http://www.w3.org/2000/svg'%3E%3Cg fill='none' fill-rule='evenodd'%3E%3Cg fill='%23d3d4e8' fill-opacity='0.36'%3E%3Cpath d='M36 34v-4h-2v4h-4v2h4v4h2v-4h4v-2h-4zm0-30V0h-2v4h-4v2h4v4h2V6h4V4h-4zM6 34v-4H4v4H0v2h4v4h2v-4h4v-2H6zM6 4V0H4v4H0v2h4v4h2V6h4V4H6z'/%3E%3C/g%3E%3C/g%3E%3C/svg%3E;imageBackground=none;fontColor=none;noLabel=1;sketch=0;imageBorder=none;" parent="WDFroLOSNas-2Gb8HKun-160" vertex="1">
                    <mxGeometry x="420" y="300" width="60" height="60" as="geometry"/>
                </mxCell>
                <mxCell id="WDFroLOSNas-2Gb8HKun-141" value="" style="shape=image;verticalLabelPosition=bottom;labelBackgroundColor=none;verticalAlign=top;aspect=fixed;imageAspect=0;image=data:image/svg+xml,%3Csvg width='60' height='60' viewBox='0 0 60 60' xmlns='http://www.w3.org/2000/svg'%3E%3Cg fill='none' fill-rule='evenodd'%3E%3Cg fill='%23d3d4e8' fill-opacity='0.36'%3E%3Cpath d='M36 34v-4h-2v4h-4v2h4v4h2v-4h4v-2h-4zm0-30V0h-2v4h-4v2h4v4h2V6h4V4h-4zM6 34v-4H4v4H0v2h4v4h2v-4h4v-2H6zM6 4V0H4v4H0v2h4v4h2V6h4V4H6z'/%3E%3C/g%3E%3C/g%3E%3C/svg%3E;imageBackground=none;fontColor=none;noLabel=1;sketch=0;imageBorder=none;" parent="WDFroLOSNas-2Gb8HKun-160" vertex="1">
                    <mxGeometry x="120" y="360" width="60" height="60" as="geometry"/>
                </mxCell>
                <mxCell id="WDFroLOSNas-2Gb8HKun-142" value="" style="shape=image;verticalLabelPosition=bottom;labelBackgroundColor=none;verticalAlign=top;aspect=fixed;imageAspect=0;image=data:image/svg+xml,%3Csvg width='60' height='60' viewBox='0 0 60 60' xmlns='http://www.w3.org/2000/svg'%3E%3Cg fill='none' fill-rule='evenodd'%3E%3Cg fill='%23d3d4e8' fill-opacity='0.36'%3E%3Cpath d='M36 34v-4h-2v4h-4v2h4v4h2v-4h4v-2h-4zm0-30V0h-2v4h-4v2h4v4h2V6h4V4h-4zM6 34v-4H4v4H0v2h4v4h2v-4h4v-2H6zM6 4V0H4v4H0v2h4v4h2V6h4V4H6z'/%3E%3C/g%3E%3C/g%3E%3C/svg%3E;imageBackground=none;fontColor=none;noLabel=1;sketch=0;imageBorder=none;" parent="WDFroLOSNas-2Gb8HKun-160" vertex="1">
                    <mxGeometry x="60" y="360" width="60" height="60" as="geometry"/>
                </mxCell>
                <mxCell id="WDFroLOSNas-2Gb8HKun-143" value="" style="shape=image;verticalLabelPosition=bottom;labelBackgroundColor=none;verticalAlign=top;aspect=fixed;imageAspect=0;image=data:image/svg+xml,%3Csvg width='60' height='60' viewBox='0 0 60 60' xmlns='http://www.w3.org/2000/svg'%3E%3Cg fill='none' fill-rule='evenodd'%3E%3Cg fill='%23d3d4e8' fill-opacity='0.36'%3E%3Cpath d='M36 34v-4h-2v4h-4v2h4v4h2v-4h4v-2h-4zm0-30V0h-2v4h-4v2h4v4h2V6h4V4h-4zM6 34v-4H4v4H0v2h4v4h2v-4h4v-2H6zM6 4V0H4v4H0v2h4v4h2V6h4V4H6z'/%3E%3C/g%3E%3C/g%3E%3C/svg%3E;imageBackground=none;fontColor=none;noLabel=1;sketch=0;imageBorder=none;" parent="WDFroLOSNas-2Gb8HKun-160" vertex="1">
                    <mxGeometry y="360" width="60" height="60" as="geometry"/>
                </mxCell>
                <mxCell id="WDFroLOSNas-2Gb8HKun-144" value="" style="shape=image;verticalLabelPosition=bottom;labelBackgroundColor=none;verticalAlign=top;aspect=fixed;imageAspect=0;image=data:image/svg+xml,%3Csvg width='60' height='60' viewBox='0 0 60 60' xmlns='http://www.w3.org/2000/svg'%3E%3Cg fill='none' fill-rule='evenodd'%3E%3Cg fill='%23d3d4e8' fill-opacity='0.36'%3E%3Cpath d='M36 34v-4h-2v4h-4v2h4v4h2v-4h4v-2h-4zm0-30V0h-2v4h-4v2h4v4h2V6h4V4h-4zM6 34v-4H4v4H0v2h4v4h2v-4h4v-2H6zM6 4V0H4v4H0v2h4v4h2V6h4V4H6z'/%3E%3C/g%3E%3C/g%3E%3C/svg%3E;imageBackground=none;fontColor=none;noLabel=1;sketch=0;imageBorder=none;" parent="WDFroLOSNas-2Gb8HKun-160" vertex="1">
                    <mxGeometry x="360" y="360" width="60" height="60" as="geometry"/>
                </mxCell>
                <mxCell id="WDFroLOSNas-2Gb8HKun-145" value="" style="shape=image;verticalLabelPosition=bottom;labelBackgroundColor=none;verticalAlign=top;aspect=fixed;imageAspect=0;image=data:image/svg+xml,%3Csvg width='60' height='60' viewBox='0 0 60 60' xmlns='http://www.w3.org/2000/svg'%3E%3Cg fill='none' fill-rule='evenodd'%3E%3Cg fill='%23d3d4e8' fill-opacity='0.36'%3E%3Cpath d='M36 34v-4h-2v4h-4v2h4v4h2v-4h4v-2h-4zm0-30V0h-2v4h-4v2h4v4h2V6h4V4h-4zM6 34v-4H4v4H0v2h4v4h2v-4h4v-2H6zM6 4V0H4v4H0v2h4v4h2V6h4V4H6z'/%3E%3C/g%3E%3C/g%3E%3C/svg%3E;imageBackground=none;fontColor=none;noLabel=1;sketch=0;imageBorder=none;" parent="WDFroLOSNas-2Gb8HKun-160" vertex="1">
                    <mxGeometry x="300" y="360" width="60" height="60" as="geometry"/>
                </mxCell>
                <mxCell id="WDFroLOSNas-2Gb8HKun-146" value="" style="shape=image;verticalLabelPosition=bottom;labelBackgroundColor=none;verticalAlign=top;aspect=fixed;imageAspect=0;image=data:image/svg+xml,%3Csvg width='60' height='60' viewBox='0 0 60 60' xmlns='http://www.w3.org/2000/svg'%3E%3Cg fill='none' fill-rule='evenodd'%3E%3Cg fill='%23d3d4e8' fill-opacity='0.36'%3E%3Cpath d='M36 34v-4h-2v4h-4v2h4v4h2v-4h4v-2h-4zm0-30V0h-2v4h-4v2h4v4h2V6h4V4h-4zM6 34v-4H4v4H0v2h4v4h2v-4h4v-2H6zM6 4V0H4v4H0v2h4v4h2V6h4V4H6z'/%3E%3C/g%3E%3C/g%3E%3C/svg%3E;imageBackground=none;fontColor=none;noLabel=1;sketch=0;imageBorder=none;" parent="WDFroLOSNas-2Gb8HKun-160" vertex="1">
                    <mxGeometry x="240" y="360" width="60" height="60" as="geometry"/>
                </mxCell>
                <mxCell id="WDFroLOSNas-2Gb8HKun-147" value="" style="shape=image;verticalLabelPosition=bottom;labelBackgroundColor=none;verticalAlign=top;aspect=fixed;imageAspect=0;image=data:image/svg+xml,%3Csvg width='60' height='60' viewBox='0 0 60 60' xmlns='http://www.w3.org/2000/svg'%3E%3Cg fill='none' fill-rule='evenodd'%3E%3Cg fill='%23d3d4e8' fill-opacity='0.36'%3E%3Cpath d='M36 34v-4h-2v4h-4v2h4v4h2v-4h4v-2h-4zm0-30V0h-2v4h-4v2h4v4h2V6h4V4h-4zM6 34v-4H4v4H0v2h4v4h2v-4h4v-2H6zM6 4V0H4v4H0v2h4v4h2V6h4V4H6z'/%3E%3C/g%3E%3C/g%3E%3C/svg%3E;imageBackground=none;fontColor=none;noLabel=1;sketch=0;imageBorder=none;" parent="WDFroLOSNas-2Gb8HKun-160" vertex="1">
                    <mxGeometry x="180" y="360" width="60" height="60" as="geometry"/>
                </mxCell>
                <mxCell id="WDFroLOSNas-2Gb8HKun-148" value="" style="shape=image;verticalLabelPosition=bottom;labelBackgroundColor=none;verticalAlign=top;aspect=fixed;imageAspect=0;image=data:image/svg+xml,%3Csvg width='60' height='60' viewBox='0 0 60 60' xmlns='http://www.w3.org/2000/svg'%3E%3Cg fill='none' fill-rule='evenodd'%3E%3Cg fill='%23d3d4e8' fill-opacity='0.36'%3E%3Cpath d='M36 34v-4h-2v4h-4v2h4v4h2v-4h4v-2h-4zm0-30V0h-2v4h-4v2h4v4h2V6h4V4h-4zM6 34v-4H4v4H0v2h4v4h2v-4h4v-2H6zM6 4V0H4v4H0v2h4v4h2V6h4V4H6z'/%3E%3C/g%3E%3C/g%3E%3C/svg%3E;imageBackground=none;fontColor=none;noLabel=1;sketch=0;imageBorder=none;" parent="WDFroLOSNas-2Gb8HKun-160" vertex="1">
                    <mxGeometry x="480" y="360" width="60" height="60" as="geometry"/>
                </mxCell>
                <mxCell id="WDFroLOSNas-2Gb8HKun-149" value="" style="shape=image;verticalLabelPosition=bottom;labelBackgroundColor=none;verticalAlign=top;aspect=fixed;imageAspect=0;image=data:image/svg+xml,%3Csvg width='60' height='60' viewBox='0 0 60 60' xmlns='http://www.w3.org/2000/svg'%3E%3Cg fill='none' fill-rule='evenodd'%3E%3Cg fill='%23d3d4e8' fill-opacity='0.36'%3E%3Cpath d='M36 34v-4h-2v4h-4v2h4v4h2v-4h4v-2h-4zm0-30V0h-2v4h-4v2h4v4h2V6h4V4h-4zM6 34v-4H4v4H0v2h4v4h2v-4h4v-2H6zM6 4V0H4v4H0v2h4v4h2V6h4V4H6z'/%3E%3C/g%3E%3C/g%3E%3C/svg%3E;imageBackground=none;fontColor=none;noLabel=1;sketch=0;imageBorder=none;" parent="WDFroLOSNas-2Gb8HKun-160" vertex="1">
                    <mxGeometry x="420" y="360" width="60" height="60" as="geometry"/>
                </mxCell>
                <mxCell id="WDFroLOSNas-2Gb8HKun-150" value="" style="shape=image;verticalLabelPosition=bottom;labelBackgroundColor=none;verticalAlign=top;aspect=fixed;imageAspect=0;image=data:image/svg+xml,%3Csvg width='60' height='60' viewBox='0 0 60 60' xmlns='http://www.w3.org/2000/svg'%3E%3Cg fill='none' fill-rule='evenodd'%3E%3Cg fill='%23d3d4e8' fill-opacity='0.36'%3E%3Cpath d='M36 34v-4h-2v4h-4v2h4v4h2v-4h4v-2h-4zm0-30V0h-2v4h-4v2h4v4h2V6h4V4h-4zM6 34v-4H4v4H0v2h4v4h2v-4h4v-2H6zM6 4V0H4v4H0v2h4v4h2V6h4V4H6z'/%3E%3C/g%3E%3C/g%3E%3C/svg%3E;imageBackground=none;fontColor=none;noLabel=1;sketch=0;imageBorder=none;" parent="WDFroLOSNas-2Gb8HKun-160" vertex="1">
                    <mxGeometry x="120" y="420" width="60" height="60" as="geometry"/>
                </mxCell>
                <mxCell id="WDFroLOSNas-2Gb8HKun-151" value="" style="shape=image;verticalLabelPosition=bottom;labelBackgroundColor=none;verticalAlign=top;aspect=fixed;imageAspect=0;image=data:image/svg+xml,%3Csvg width='60' height='60' viewBox='0 0 60 60' xmlns='http://www.w3.org/2000/svg'%3E%3Cg fill='none' fill-rule='evenodd'%3E%3Cg fill='%23d3d4e8' fill-opacity='0.36'%3E%3Cpath d='M36 34v-4h-2v4h-4v2h4v4h2v-4h4v-2h-4zm0-30V0h-2v4h-4v2h4v4h2V6h4V4h-4zM6 34v-4H4v4H0v2h4v4h2v-4h4v-2H6zM6 4V0H4v4H0v2h4v4h2V6h4V4H6z'/%3E%3C/g%3E%3C/g%3E%3C/svg%3E;imageBackground=none;fontColor=none;noLabel=1;sketch=0;imageBorder=none;" parent="WDFroLOSNas-2Gb8HKun-160" vertex="1">
                    <mxGeometry x="60" y="420" width="60" height="60" as="geometry"/>
                </mxCell>
                <mxCell id="WDFroLOSNas-2Gb8HKun-152" value="" style="shape=image;verticalLabelPosition=bottom;labelBackgroundColor=none;verticalAlign=top;aspect=fixed;imageAspect=0;image=data:image/svg+xml,%3Csvg width='60' height='60' viewBox='0 0 60 60' xmlns='http://www.w3.org/2000/svg'%3E%3Cg fill='none' fill-rule='evenodd'%3E%3Cg fill='%23d3d4e8' fill-opacity='0.36'%3E%3Cpath d='M36 34v-4h-2v4h-4v2h4v4h2v-4h4v-2h-4zm0-30V0h-2v4h-4v2h4v4h2V6h4V4h-4zM6 34v-4H4v4H0v2h4v4h2v-4h4v-2H6zM6 4V0H4v4H0v2h4v4h2V6h4V4H6z'/%3E%3C/g%3E%3C/g%3E%3C/svg%3E;imageBackground=none;fontColor=none;noLabel=1;sketch=0;imageBorder=none;" parent="WDFroLOSNas-2Gb8HKun-160" vertex="1">
                    <mxGeometry y="420" width="60" height="60" as="geometry"/>
                </mxCell>
                <mxCell id="WDFroLOSNas-2Gb8HKun-153" value="" style="shape=image;verticalLabelPosition=bottom;labelBackgroundColor=none;verticalAlign=top;aspect=fixed;imageAspect=0;image=data:image/svg+xml,%3Csvg width='60' height='60' viewBox='0 0 60 60' xmlns='http://www.w3.org/2000/svg'%3E%3Cg fill='none' fill-rule='evenodd'%3E%3Cg fill='%23d3d4e8' fill-opacity='0.36'%3E%3Cpath d='M36 34v-4h-2v4h-4v2h4v4h2v-4h4v-2h-4zm0-30V0h-2v4h-4v2h4v4h2V6h4V4h-4zM6 34v-4H4v4H0v2h4v4h2v-4h4v-2H6zM6 4V0H4v4H0v2h4v4h2V6h4V4H6z'/%3E%3C/g%3E%3C/g%3E%3C/svg%3E;imageBackground=none;fontColor=none;noLabel=1;sketch=0;imageBorder=none;" parent="WDFroLOSNas-2Gb8HKun-160" vertex="1">
                    <mxGeometry x="360" y="420" width="60" height="60" as="geometry"/>
                </mxCell>
                <mxCell id="WDFroLOSNas-2Gb8HKun-154" value="" style="shape=image;verticalLabelPosition=bottom;labelBackgroundColor=none;verticalAlign=top;aspect=fixed;imageAspect=0;image=data:image/svg+xml,%3Csvg width='60' height='60' viewBox='0 0 60 60' xmlns='http://www.w3.org/2000/svg'%3E%3Cg fill='none' fill-rule='evenodd'%3E%3Cg fill='%23d3d4e8' fill-opacity='0.36'%3E%3Cpath d='M36 34v-4h-2v4h-4v2h4v4h2v-4h4v-2h-4zm0-30V0h-2v4h-4v2h4v4h2V6h4V4h-4zM6 34v-4H4v4H0v2h4v4h2v-4h4v-2H6zM6 4V0H4v4H0v2h4v4h2V6h4V4H6z'/%3E%3C/g%3E%3C/g%3E%3C/svg%3E;imageBackground=none;fontColor=none;noLabel=1;sketch=0;imageBorder=none;" parent="WDFroLOSNas-2Gb8HKun-160" vertex="1">
                    <mxGeometry x="300" y="420" width="60" height="60" as="geometry"/>
                </mxCell>
                <mxCell id="WDFroLOSNas-2Gb8HKun-155" value="" style="shape=image;verticalLabelPosition=bottom;labelBackgroundColor=none;verticalAlign=top;aspect=fixed;imageAspect=0;image=data:image/svg+xml,%3Csvg width='60' height='60' viewBox='0 0 60 60' xmlns='http://www.w3.org/2000/svg'%3E%3Cg fill='none' fill-rule='evenodd'%3E%3Cg fill='%23d3d4e8' fill-opacity='0.36'%3E%3Cpath d='M36 34v-4h-2v4h-4v2h4v4h2v-4h4v-2h-4zm0-30V0h-2v4h-4v2h4v4h2V6h4V4h-4zM6 34v-4H4v4H0v2h4v4h2v-4h4v-2H6zM6 4V0H4v4H0v2h4v4h2V6h4V4H6z'/%3E%3C/g%3E%3C/g%3E%3C/svg%3E;imageBackground=none;fontColor=none;noLabel=1;sketch=0;imageBorder=none;" parent="WDFroLOSNas-2Gb8HKun-160" vertex="1">
                    <mxGeometry x="240" y="420" width="60" height="60" as="geometry"/>
                </mxCell>
                <mxCell id="WDFroLOSNas-2Gb8HKun-156" value="" style="shape=image;verticalLabelPosition=bottom;labelBackgroundColor=none;verticalAlign=top;aspect=fixed;imageAspect=0;image=data:image/svg+xml,%3Csvg width='60' height='60' viewBox='0 0 60 60' xmlns='http://www.w3.org/2000/svg'%3E%3Cg fill='none' fill-rule='evenodd'%3E%3Cg fill='%23d3d4e8' fill-opacity='0.36'%3E%3Cpath d='M36 34v-4h-2v4h-4v2h4v4h2v-4h4v-2h-4zm0-30V0h-2v4h-4v2h4v4h2V6h4V4h-4zM6 34v-4H4v4H0v2h4v4h2v-4h4v-2H6zM6 4V0H4v4H0v2h4v4h2V6h4V4H6z'/%3E%3C/g%3E%3C/g%3E%3C/svg%3E;imageBackground=none;fontColor=none;noLabel=1;sketch=0;imageBorder=none;" parent="WDFroLOSNas-2Gb8HKun-160" vertex="1">
                    <mxGeometry x="180" y="420" width="60" height="60" as="geometry"/>
                </mxCell>
                <mxCell id="WDFroLOSNas-2Gb8HKun-157" value="" style="shape=image;verticalLabelPosition=bottom;labelBackgroundColor=none;verticalAlign=top;aspect=fixed;imageAspect=0;image=data:image/svg+xml,%3Csvg width='60' height='60' viewBox='0 0 60 60' xmlns='http://www.w3.org/2000/svg'%3E%3Cg fill='none' fill-rule='evenodd'%3E%3Cg fill='%23d3d4e8' fill-opacity='0.36'%3E%3Cpath d='M36 34v-4h-2v4h-4v2h4v4h2v-4h4v-2h-4zm0-30V0h-2v4h-4v2h4v4h2V6h4V4h-4zM6 34v-4H4v4H0v2h4v4h2v-4h4v-2H6zM6 4V0H4v4H0v2h4v4h2V6h4V4H6z'/%3E%3C/g%3E%3C/g%3E%3C/svg%3E;imageBackground=none;fontColor=none;noLabel=1;sketch=0;imageBorder=none;" parent="WDFroLOSNas-2Gb8HKun-160" vertex="1">
                    <mxGeometry x="480" y="420" width="60" height="60" as="geometry"/>
                </mxCell>
                <mxCell id="WDFroLOSNas-2Gb8HKun-158" value="" style="shape=image;verticalLabelPosition=bottom;labelBackgroundColor=none;verticalAlign=top;aspect=fixed;imageAspect=0;image=data:image/svg+xml,%3Csvg width='60' height='60' viewBox='0 0 60 60' xmlns='http://www.w3.org/2000/svg'%3E%3Cg fill='none' fill-rule='evenodd'%3E%3Cg fill='%23d3d4e8' fill-opacity='0.36'%3E%3Cpath d='M36 34v-4h-2v4h-4v2h4v4h2v-4h4v-2h-4zm0-30V0h-2v4h-4v2h4v4h2V6h4V4h-4zM6 34v-4H4v4H0v2h4v4h2v-4h4v-2H6zM6 4V0H4v4H0v2h4v4h2V6h4V4H6z'/%3E%3C/g%3E%3C/g%3E%3C/svg%3E;imageBackground=none;fontColor=none;noLabel=1;sketch=0;imageBorder=none;" parent="WDFroLOSNas-2Gb8HKun-160" vertex="1">
                    <mxGeometry x="420" y="420" width="60" height="60" as="geometry"/>
                </mxCell>
                <mxCell id="1" value="Diagram" parent="0"/>
                <mxCell id="lkz6eduHoyfeCN3GEIvg-3" value="" style="edgeStyle=orthogonalEdgeStyle;rounded=1;orthogonalLoop=1;jettySize=auto;html=1;strokeWidth=2;strokeColor=#999999;" parent="1" source="lkz6eduHoyfeCN3GEIvg-1" target="lkz6eduHoyfeCN3GEIvg-2" edge="1">
                    <mxGeometry relative="1" as="geometry"/>
                </mxCell>
                <mxCell id="lkz6eduHoyfeCN3GEIvg-10" value="created by" style="edgeLabel;html=1;align=center;verticalAlign=middle;resizable=0;points=[];" parent="lkz6eduHoyfeCN3GEIvg-3" vertex="1" connectable="0">
                    <mxGeometry x="-0.2923" y="-1" relative="1" as="geometry">
                        <mxPoint x="-26" y="21" as="offset"/>
                    </mxGeometry>
                </mxCell>
                <mxCell id="lkz6eduHoyfeCN3GEIvg-5" value="" style="edgeStyle=orthogonalEdgeStyle;rounded=0;orthogonalLoop=1;jettySize=auto;html=1;strokeWidth=2;strokeColor=#999999;" parent="1" source="lkz6eduHoyfeCN3GEIvg-1" target="lkz6eduHoyfeCN3GEIvg-4" edge="1">
                    <mxGeometry relative="1" as="geometry"/>
                </mxCell>
                <mxCell id="lkz6eduHoyfeCN3GEIvg-9" value="stored by" style="edgeLabel;html=1;align=center;verticalAlign=middle;resizable=0;points=[];" parent="lkz6eduHoyfeCN3GEIvg-5" vertex="1" connectable="0">
                    <mxGeometry x="0.1" y="2" relative="1" as="geometry">
                        <mxPoint x="-2" as="offset"/>
                    </mxGeometry>
                </mxCell>
                <mxCell id="lkz6eduHoyfeCN3GEIvg-7" value="" style="edgeStyle=orthogonalEdgeStyle;rounded=1;orthogonalLoop=1;jettySize=auto;html=1;strokeWidth=2;strokeColor=#999999;" parent="1" source="lkz6eduHoyfeCN3GEIvg-1" target="lkz6eduHoyfeCN3GEIvg-6" edge="1">
                    <mxGeometry relative="1" as="geometry"/>
                </mxCell>
                <mxCell id="lkz6eduHoyfeCN3GEIvg-8" value="stores" style="edgeLabel;html=1;align=center;verticalAlign=middle;resizable=0;points=[];" parent="lkz6eduHoyfeCN3GEIvg-7" vertex="1" connectable="0">
                    <mxGeometry x="-0.05" y="-1" relative="1" as="geometry">
                        <mxPoint x="1" y="20" as="offset"/>
                    </mxGeometry>
                </mxCell>
                <mxCell id="lkz6eduHoyfeCN3GEIvg-1" value="Cookie" style="rounded=1;whiteSpace=wrap;html=1;strokeWidth=2;strokeColor=#7EA6E0;" parent="1" vertex="1">
                    <mxGeometry x="500" y="60" width="120" height="60" as="geometry"/>
                </mxCell>
                <mxCell id="lkz6eduHoyfeCN3GEIvg-2" value="The server&lt;br&gt;(Flask)" style="whiteSpace=wrap;html=1;rounded=1;strokeWidth=2;strokeColor=#7EA6E0;" parent="1" vertex="1">
                    <mxGeometry x="340" y="200" width="120" height="60" as="geometry"/>
                </mxCell>
                <mxCell id="lkz6eduHoyfeCN3GEIvg-12" value="" style="edgeStyle=orthogonalEdgeStyle;rounded=0;orthogonalLoop=1;jettySize=auto;html=1;strokeWidth=2;strokeColor=#999999;" parent="1" source="lkz6eduHoyfeCN3GEIvg-4" target="lkz6eduHoyfeCN3GEIvg-11" edge="1">
                    <mxGeometry relative="1" as="geometry"/>
                </mxCell>
                <mxCell id="lkz6eduHoyfeCN3GEIvg-13" value="sent to" style="edgeLabel;html=1;align=center;verticalAlign=middle;resizable=0;points=[];" parent="lkz6eduHoyfeCN3GEIvg-12" vertex="1" connectable="0">
                    <mxGeometry x="0.075" y="4" relative="1" as="geometry">
                        <mxPoint x="-4" as="offset"/>
                    </mxGeometry>
                </mxCell>
                <mxCell id="lkz6eduHoyfeCN3GEIvg-4" value="The browser" style="whiteSpace=wrap;html=1;rounded=1;strokeWidth=2;strokeColor=#7EA6E0;" parent="1" vertex="1">
                    <mxGeometry x="500" y="200" width="120" height="60" as="geometry"/>
                </mxCell>
                <mxCell id="lkz6eduHoyfeCN3GEIvg-6" value="Any data the server wants" style="whiteSpace=wrap;html=1;rounded=1;strokeWidth=2;strokeColor=#7EA6E0;" parent="1" vertex="1">
                    <mxGeometry x="660" y="200" width="120" height="60" as="geometry"/>
                </mxCell>
                <mxCell id="lkz6eduHoyfeCN3GEIvg-11" value="The server in every request" style="whiteSpace=wrap;html=1;rounded=1;strokeWidth=2;strokeColor=#7EA6E0;" parent="1" vertex="1">
                    <mxGeometry x="500" y="340" width="120" height="60" as="geometry"/>
                </mxCell>
            </root>
        </mxGraphModel>
    </diagram>
</mxfile>